<?xml version="1.0" encoding="UTF-8"?>
<svg id="Capa_2" data-name="Capa 2" xmlns="http://www.w3.org/2000/svg" viewBox="0 0 366.99 398.96">
  <defs>
    <style>
      .cls-1 {
        fill: #e27f07;
      }
    </style>
  </defs>
  <g id="Capa_1-2" data-name="Capa 1">
    <g>
      <g>
        <path class="cls-1" d="M43.83,321.17h-23.89l-3.92,8.61H6.69l20.5-45.69h9.4l20.5,45.69h-9.4l-3.85-8.61ZM31.89,293.68l-8.49,19.45h16.97l-8.48-19.45Z"/>
        <path class="cls-1" d="M91.01,284.02h8.61v45.76h-5.35v.07l-24.02-30.88v30.81h-8.61v-45.69h6.98l22.4,28.33v-28.4Z"/>
        <path class="cls-1" d="M139.95,321.17h-23.89l-3.92,8.61h-9.33l20.5-45.69h9.4l20.5,45.69h-9.4l-3.85-8.61ZM128.01,293.68l-8.49,19.45h16.97l-8.48-19.45Z"/>
        <path class="cls-1" d="M166.37,284.09v37.73h23.5v7.96h-32.11v-45.69h8.61Z"/>
        <path class="cls-1" d="M195.98,329.78v-45.69h8.55v45.69h-8.55ZM210.68,270.65h-9.4l-4.83,8.87v.39h7.05l7.18-8.94v-.33Z"/>
        <path class="cls-1" d="M226.53,291.92h-14.48v-7.84h37.6v7.84h-14.49v37.86h-8.62v-37.86Z"/>
        <path class="cls-1" d="M254.91,329.78v-45.69h8.55v45.69h-8.55Z"/>
        <path class="cls-1" d="M311.83,324.03c-4.7,4.64-10.77,6.79-17.37,6.79-16.97,0-24.15-11.68-24.21-23.56-.07-11.94,7.7-24.08,24.21-24.08,6.2,0,12.07,2.35,16.78,6.98l-5.74,5.55c-3-2.94-7.05-4.31-11.03-4.31-11.03,0-15.79,8.22-15.73,15.86.07,7.57,4.44,15.47,15.73,15.47,3.99,0,8.49-1.63,11.49-4.64l5.88,5.94Z"/>
        <path class="cls-1" d="M347.06,321.17h-23.89l-3.92,8.61h-9.33l20.5-45.69h9.4l20.5,45.69h-9.4l-3.85-8.61ZM335.12,293.68l-8.49,19.45h16.97l-8.48-19.45Z"/>
        <path class="cls-1" d="M35.77,363.39c-3.07-2.94-7.64-4.57-11.62-4.57-9.79,0-15.73,7.44-15.73,16.84,0,7.5,4.38,15.27,15.73,15.27,3.59,0,6.72-.78,10.31-3.65v-8.1h-11.69v-7.7h19.59v19.25c-4.5,5.15-10.18,8.22-18.21,8.22-17.17,0-24.16-11.29-24.16-23.3,0-12.86,8.03-24.74,24.16-24.74,6.14,0,12.27,2.35,16.97,6.98l-5.35,5.49Z"/>
        <path class="cls-1" d="M83.47,397.92h-34.2v-45.69h34.2v8.35h-25.66v10.51h24.74v8.03h-24.74v10.31h25.66v8.49Z"/>
        <path class="cls-1" d="M130.65,397.92h-10.25l-13.32-15.28h-8.29v15.28h-8.62v-45.76c7.25,0,14.49.07,21.74.07,10.77.07,16.45,7.25,16.45,15.14,0,6.27-2.88,12.6-11.56,14.37l13.84,15.6v.58ZM98.8,360.26v14.62h13.12c5.49,0,7.84-3.66,7.84-7.31s-2.42-7.31-7.84-7.31h-13.12Z"/>
        <path class="cls-1" d="M168.24,397.92h-34.2v-45.69h34.2v8.35h-25.66v10.51h24.74v8.03h-24.74v10.31h25.66v8.49Z"/>
        <path class="cls-1" d="M206.28,352.16h8.61v45.76h-5.35v.07l-24.02-30.88v30.81h-8.61v-45.69h6.98l22.4,28.33v-28.4Z"/>
        <path class="cls-1" d="M263.05,392.18c-4.7,4.64-10.77,6.79-17.37,6.79-16.97,0-24.15-11.68-24.21-23.56-.07-11.94,7.7-24.08,24.21-24.08,6.2,0,12.07,2.35,16.78,6.98l-5.74,5.55c-3-2.94-7.05-4.31-11.03-4.31-11.03,0-15.79,8.22-15.73,15.86.06,7.57,4.44,15.47,15.73,15.47,3.99,0,8.49-1.63,11.49-4.64l5.88,5.94Z"/>
        <path class="cls-1" d="M268,397.92v-45.69h8.55v45.69h-8.55Z"/>
        <path class="cls-1" d="M317.08,389.31h-23.89l-3.92,8.61h-9.33l20.5-45.69h9.4l20.5,45.69h-9.4l-3.85-8.61ZM305.14,361.82l-8.49,19.45h16.97l-8.48-19.45Z"/>
        <path class="cls-1" d="M343.5,352.23v37.73h23.5v7.96h-32.11v-45.69h8.61Z"/>
      </g>
      <g>
        <path class="cls-1" d="M320.1,232.26V9.75c.4-4.97-3.3-9.32-8.26-9.73-.1,0-.21-.01-.31-.02H56.96c-4.98.23-8.83,4.46-8.6,9.44,0,.1.01.21.02.31v222.51c-.4,4.97,3.3,9.32,8.26,9.73.1,0,.21.01.31.02h254.56c4.98-.23,8.83-4.46,8.6-9.44,0-.1-.01-.21-.02-.31ZM269.55,9.02c.06,0,.12,0,.18,0,4.54.1,8.13,3.86,8.03,8.39-.1,4.54-3.86,8.13-8.39,8.03-4.46-.1-8.03-3.75-8.03-8.21,0-4.54,3.68-8.22,8.21-8.22ZM244.99,9.03h.09c4.59-.05,8.34,3.63,8.4,8.22h0c-.48,4.66-4.65,8.05-9.31,7.57-3.99-.41-7.15-3.57-7.57-7.57.05-4.59,3.81-8.26,8.39-8.22ZM302.81,222.59H66.12V37.89h236.7v184.7ZM294.55,25.37s-.06,0-.09,0c-4.54-.1-8.13-3.86-8.03-8.39.1-4.54,3.86-8.13,8.39-8.03,4.5.1,8.08,3.8,8.03,8.3-.05,4.54-3.77,8.17-8.3,8.13Z"/>
        <rect class="cls-1" x="231.38" y="165.97" width="12.68" height="32.56"/>
        <polygon class="cls-1" points="253.02 198.57 267.4 198.57 267.4 93.15 253.02 93.15 253.02 159.39 253.02 198.57"/>
        <polygon class="cls-1" points="208.18 198.72 222.26 198.72 222.26 160.13 222.26 126.76 208.18 126.76 208.18 142.13 208.18 198.72"/>
        <rect class="cls-1" x="71.54" y="203.14" width="225.86" height="14.03"/>
        <rect class="cls-1" x="185.9" y="146.73" width="13.66" height="51.96"/>
        <polygon class="cls-1" points="177.36 116.73 177.36 141.71 177.36 198.78 163.12 198.78 163.12 161.19 163.12 116.73 177.36 116.73"/>
        <rect class="cls-1" x="141.52" y="167.45" width="12.47" height="31"/>
        <path class="cls-1" d="M71.54,198.61l47.28-.07V43.31s-47.28,0-47.28,0v155.3ZM82.46,57.08h25.82v5.98h-25.82v-5.98ZM82.46,71.26h25.82v5.98h-25.82v-5.98ZM82.46,86.02h25.82v5.98h-25.82v-5.98ZM82.46,100.76h25.82v5.98h-25.82v-5.98Z"/>
        <path class="cls-1" d="M123.51,42.93v155.86h13.84l.22-37.36h21.46v-50.38h26.11v29.89h18.87v-19.93h26.11v39.03h18.88v-72.79h26.11v111.37l22.28.17V42.93H123.51ZM228.63,84.69v-10.86l-32.26,30.77-23.54-22.46-26.51,25.29,14.17-18.53,12.34-16.14,23.54,22.46,28.8-27.48h-14.54l-.02-6.79h24.69l.11,23.69-6.78.04Z"/>
      </g>
    </g>
  </g>
</svg>